<?xml version="1.0" encoding="UTF-8"?>
<svg width="90.709mm" height="10.541mm" version="1.1" viewBox="0 0 90.709 10.541" xmlns="http://www.w3.org/2000/svg" xmlns:cc="http://creativecommons.org/ns#" xmlns:dc="http://purl.org/dc/elements/1.1/" xmlns:rdf="http://www.w3.org/1999/02/22-rdf-syntax-ns#">
 <metadata>
  <rdf:RDF>
   <cc:Work rdf:about="">
    <dc:format>image/svg+xml</dc:format>
    <dc:type rdf:resource="http://purl.org/dc/dcmitype/StillImage"/>
    <dc:title/>
   </cc:Work>
  </rdf:RDF>
 </metadata>
 <g transform="translate(-70.054 -117.46)">
  <g stroke-width=".26458" aria-label="Share on Snapchat">
   <path d="m75.303 118.58c-0.5715-0.53975-1.4287-0.80433-2.1802-0.80433-1.3547 0-2.7411 0.67733-2.7411 2.2013 0 1.397 0.98425 1.8415 1.8944 2.1272 0.94191 0.29633 1.7251 0.51858 1.7251 1.3017 0 0.80433-0.73025 1.1112-1.3547 1.1112-0.59266 0-1.27-0.3175-1.6404-0.8255l-0.9525 0.889c0.59266 0.6985 1.5981 1.0689 2.5717 1.0689 1.4711 0 2.7305-0.78316 2.7305-2.3918 0-1.4711-1.2277-1.8944-2.1907-2.1908-0.84666-0.26458-1.4287-0.46566-1.4287-1.1536 0-0.73024 0.70908-1.0266 1.3229-1.0266 0.52916 0 1.0901 0.27517 1.3758 0.64558z"/>
   <path d="m79.452 120.24c-0.75141 0-1.3123 0.43392-1.5134 0.85725h-0.02117v-3.6301h-1.27v8.001h1.27v-2.7728c0-0.67733 0.39158-1.3652 1.1959-1.3652 0.81491 0 0.94191 0.74083 0.94191 1.3441v2.794h1.27v-3.175c0-1.0372-0.55033-2.0532-1.8732-2.0532z"/>
   <path d="m85.961 125.46h1.1853v-3.0903c0-1.016-0.4445-2.1378-2.2648-2.1378-0.77258 0-1.5769 0.27517-2.1484 0.80433l0.65616 0.77258c0.32808-0.32808 0.84666-0.58208 1.3864-0.58208 0.635 0 1.1642 0.30692 1.1642 0.93133v0.127c-1.5875 0-3.4925 0.21167-3.4925 1.7251 0 1.1853 1.0901 1.5769 1.905 1.5769 0.71966 0 1.3229-0.32808 1.5769-0.77258h0.03175zm-0.02117-2.1378c0 0.80433-0.46567 1.3017-1.3335 1.3017-0.43392 0-0.889-0.14816-0.889-0.635 0-0.75141 1.1324-0.84666 1.9367-0.84666h0.28575z"/>
   <path d="m88.628 125.46h1.27v-2.7199c0-0.37041 0.22225-1.3652 1.3652-1.3652 0.11642 0 0.22225 0.0106 0.39158 0.0529v-1.1642c-0.08467-0.0212-0.21167-0.0318-0.30692-0.0318-0.66675 0-1.2065 0.41275-1.4817 0.99483h-0.02117v-0.84666h-1.2171z"/>
   <path d="m93.263 122.42c0.05292-0.70908 0.65616-1.2277 1.4076-1.2277 0.8255 0 1.1959 0.5715 1.1959 1.2277zm3.8735 0.5715c0-1.8309-1.0372-2.7517-2.4553-2.7517-1.5346 0-2.6882 1.0795-2.6882 2.7199 0 1.651 1.1642 2.6564 2.7305 2.6564 0.96308 0 1.6827-0.33867 2.1802-1.016l-0.84666-0.67733c-0.28575 0.40217-0.70908 0.65616-1.3441 0.65616-0.74083 0-1.397-0.52916-1.4499-1.2488h3.8629c0.01058-0.11642 0.01058-0.22225 0.01058-0.33867z"/>
   <path d="m100.71 122.9c0 1.5981 1.2277 2.7093 2.7622 2.7093s2.7622-1.1112 2.7622-2.7093c0-1.5981-1.2277-2.667-2.7622-2.667s-2.7622 1.0689-2.7622 2.667zm1.2912 0c0-0.79374 0.46566-1.6298 1.4711-1.6298 1.0054 0 1.4711 0.83608 1.4711 1.6298 0 0.79375-0.46567 1.651-1.4711 1.651-1.0054 0-1.4711-0.85725-1.4711-1.651z"/>
   <path d="m107.47 125.46h1.27v-2.794c0-0.67733 0.381-1.3758 1.1853-1.3758 0.81491 0 0.9525 0.75142 0.9525 1.3547v2.8152h1.27v-3.175c0-1.0372-0.55033-2.0532-1.8732-2.0532-0.75141 0-1.3547 0.45508-1.5769 0.96308h-0.0212v-0.81491h-1.2065z"/>
   <path d="m121.02 118.58c-0.5715-0.53975-1.4287-0.80433-2.1802-0.80433-1.3547 0-2.7411 0.67733-2.7411 2.2013 0 1.397 0.98424 1.8415 1.8944 2.1272 0.94191 0.29633 1.7251 0.51858 1.7251 1.3017 0 0.80433-0.73025 1.1112-1.3547 1.1112-0.59266 0-1.27-0.3175-1.6404-0.8255l-0.9525 0.889c0.59267 0.6985 1.5981 1.0689 2.5718 1.0689 1.4711 0 2.7305-0.78316 2.7305-2.3918 0-1.4711-1.2277-1.8944-2.1907-2.1908-0.84667-0.26458-1.4288-0.46566-1.4288-1.1536 0-0.73024 0.70908-1.0266 1.3229-1.0266 0.52917 0 1.0901 0.27517 1.3758 0.64558z"/>
   <path d="m122.35 125.46h1.27v-2.794c0-0.67733 0.381-1.3758 1.1853-1.3758 0.81492 0 0.9525 0.75142 0.9525 1.3547v2.8152h1.27v-3.175c0-1.0372-0.55033-2.0532-1.8732-2.0532-0.75141 0-1.3547 0.45508-1.5769 0.96308h-0.0212v-0.81491h-1.2065z"/>
   <path d="m131.66 125.46h1.1853v-3.0903c0-1.016-0.4445-2.1378-2.2648-2.1378-0.77258 0-1.5769 0.27517-2.1484 0.80433l0.65617 0.77258c0.32808-0.32808 0.84666-0.58208 1.3864-0.58208 0.635 0 1.1642 0.30692 1.1642 0.93133v0.127c-1.5875 0-3.4925 0.21167-3.4925 1.7251 0 1.1853 1.0901 1.5769 1.905 1.5769 0.71966 0 1.3229-0.32808 1.5769-0.77258h0.0318zm-0.0212-2.1378c0 0.80433-0.46566 1.3017-1.3335 1.3017-0.43392 0-0.889-0.14816-0.889-0.635 0-0.75141 1.1324-0.84666 1.9367-0.84666h0.28575z"/>
   <path d="m134.33 120.38v7.62h1.27v-3.2173h0.0212c0.32809 0.508 0.97367 0.8255 1.6828 0.8255 1.5452 0 2.4977-1.2277 2.4977-2.7093 0-1.5028-1.016-2.667-2.4659-2.667-0.93133 0-1.5028 0.45508-1.7568 0.85725h-0.0317v-0.70908zm4.1804 2.5188c0 0.79375-0.47624 1.651-1.4605 1.651-0.93133 0-1.4922-0.83608-1.4922-1.6298s0.56092-1.651 1.4922-1.651c0.98425 0 1.4605 0.83608 1.4605 1.6298z"/>
   <path d="m145.36 121.03c-0.40217-0.49742-1.1748-0.79375-1.9156-0.79375-1.4922 0-2.7199 1.0372-2.7199 2.6882 0 1.6933 1.2488 2.6882 2.7517 2.6882 0.75142 0 1.4499-0.254 1.8732-0.70908l-0.79375-0.80433c-0.24342 0.29633-0.67733 0.45508-1.0689 0.45508-0.96308 0-1.4393-0.83608-1.4393-1.6298s0.46566-1.6298 1.397-1.6298c0.41275 0 0.84667 0.21167 1.0478 0.49742z"/>
   <path d="m149.02 120.24c-0.75141 0-1.3123 0.43392-1.5134 0.85725h-0.0212v-3.6301h-1.27v8.001h1.27v-2.7728c0-0.67733 0.39159-1.3652 1.1959-1.3652 0.81491 0 0.94191 0.74083 0.94191 1.3441v2.794h1.27v-3.175c0-1.0372-0.55033-2.0532-1.8732-2.0532z"/>
   <path d="m155.52 125.46h1.1853v-3.0903c0-1.016-0.4445-2.1378-2.2648-2.1378-0.77258 0-1.5769 0.27517-2.1484 0.80433l0.65616 0.77258c0.32808-0.32808 0.84667-0.58208 1.3864-0.58208 0.635 0 1.1642 0.30692 1.1642 0.93133v0.127c-1.5875 0-3.4925 0.21167-3.4925 1.7251 0 1.1853 1.0901 1.5769 1.905 1.5769 0.71967 0 1.3229-0.32808 1.5769-0.77258h0.0317zm-0.0212-2.1378c0 0.80433-0.46567 1.3017-1.3335 1.3017-0.43391 0-0.889-0.14816-0.889-0.635 0-0.75141 1.1324-0.84666 1.9368-0.84666h0.28575z"/>
   <path d="m158.24 121.4v2.3706c0 0.97367 0.30691 1.7992 1.651 1.7992 0.28575 0 0.62442-0.0529 0.84666-0.13759l-0.0423-0.99483c-0.14816 0.0741-0.37041 0.10584-0.53975 0.10584-0.56091 0-0.66674-0.32809-0.66674-0.78317v-2.3601h1.27v-1.016h-1.27v-1.4711h-1.2488v1.4711h-0.889v1.016z"/>
  </g>
 </g>
</svg>
